<svg width="191" height="184" viewBox="0 0 191 184" fill="none" xmlns="http://www.w3.org/2000/svg">
<path d="M140.771 144.48C139.39 145.819 137.499 146.664 135.318 146.664C131.1 146.664 127.609 143.282 127.609 139.196L127.609 61.1279L47.038 61.1281C42.8203 61.1281 39.3299 57.7461 39.3299 53.6595C39.3299 49.5729 42.8203 46.1909 47.038 46.1909L135.318 46.1908C139.535 46.1908 143.026 49.5728 143.026 53.6593L143.026 139.196C143.026 141.31 142.153 143.141 140.771 144.48Z" fill="white"/>
<path d="M139.541 60.1342L17.1565 178.716C14.175 181.604 9.23022 181.604 6.24878 178.716C3.26734 175.827 3.26734 171.036 6.24878 168.147L128.633 49.5655C131.615 46.6767 136.56 46.6767 139.541 49.5655C142.522 52.4543 142.522 57.2454 139.541 60.1342Z" fill="white"/>
</svg>
