<svg width="506" height="215" viewBox="0 0 506 215" fill="none" xmlns="http://www.w3.org/2000/svg">
<path d="M0.400001 215V0.799986H58.6V81.2H179.2V0.799986H237.4V215H179.2V122H58.6V215H0.400001ZM333.334 39.8V86H414.334C427.834 86 436.234 78.8 436.234 62.9C436.234 49.4 430.234 39.8 406.234 39.8H333.334ZM275.134 215V0.799986H435.934C467.134 0.799986 496.234 15.2 496.234 54.8C496.234 71.6 487.834 91.4 467.734 97.7V98.3C492.934 102.2 505.834 127.4 505.834 150.2C505.834 178.7 492.334 215 427.834 215H275.134ZM333.334 123.2V174.2H419.134C437.134 174.2 444.034 162.5 444.034 149C444.034 131.9 433.834 123.2 413.134 123.2H333.334Z" fill="white"/>
</svg>
