<svg width="423" height="430" viewBox="0 0 423 430" fill="none" xmlns="http://www.w3.org/2000/svg">
<path d="M337.097 267.09C334.71 269.732 331.35 271.496 327.38 271.698C319.704 272.089 313.028 266.06 312.637 258.384L305.17 111.749L158.536 119.217C150.86 119.608 144.184 113.579 143.793 105.903C143.402 98.2275 149.431 91.5517 157.107 91.1608L317.769 82.9787C325.445 82.5878 332.121 88.6167 332.512 96.2925L340.694 256.955C340.896 260.926 339.483 264.447 337.097 267.09Z" fill="#47C083"/>
<path d="M326.79 108.779L115.401 342.852C110.252 348.555 101.252 349.013 95.5501 343.863C89.8478 338.714 89.3895 329.714 94.5392 324.012L305.928 89.9384C311.077 84.2361 320.076 83.7778 325.779 88.9275C331.481 94.0771 331.939 103.076 326.79 108.779Z" fill="#47C083"/>
</svg>
